# xmcd
#
# Track frame offsets: 
#        150
#        17912
#        34012
#        47822
#        63127
#        77707
#        88802
#        105945
#        120732
#        136232
#        152115
#        167720
#
# Disc length: 2425 seconds
#
# Revision: 4
# Processed by: cddbd v1.5.2PL0 Copyright (c) Steve Scherf et al.
# Submitted via: ExactAudioCopy v0.99pb5
#
DISCID=9109770c
DTITLE=Dolly Parton - Slow Dancing With The Moon
DYEAR=1993
DGENRE=Country
TTITLE0=Full Circle
TTITLE1=Romeo
TTITLE2=A Heartache Tonight
TTITLE3=What Will Baby Be
TTITLE4=More Where That Came From
TTITLE5=Put A Little Love In Your Heart
TTITLE6=Why Can't We
TTITLE7=I'll Mak Your Bed
TTITLE8=Whenever Forever Comes
TTITLE9=Cross My Heart
TTITLE10=Slow Dancing With The Moon
TTITLE11=High And Mighty
EXTD=Produced By Steve Buckingham and Dolly Parton
EXTT0=
EXTT1=
EXTT2=
EXTT3=
EXTT4=
EXTT5=
EXTT6=
EXTT7=
EXTT8=
EXTT9=
EXTT10=
EXTT11=
PLAYORDER=
